
<svg xmlns="http://www.w3.org/2000/svg" width="800" height="500" viewBox="0 0 800 500">
  <defs>
    <mask id="orbitMask">
      <rect x="0" y="0" width="1024" height="1024" fill="white"/>
      <ellipse cx="480" cy="320" rx="90" ry="90" fill="black"/>
    </mask>
  </defs>

  <rect x="0" y="0" width="800" height="500" fill="#1e3a8a"/>

  <g transform="translate(400, 250) scale(1.1922821760283062) translate(-366.1, -244)">
    <g transform="translate(140, 164) scale(0.15625)">
      <path mask="url(#orbitMask)" d="M863.925 101.215C854.734 101.043 845.508 101.893 836.441 103.33C819.638 105.993 803.189 110.677 787.155 116.305C765.854 123.783 745.182 133.017 725.025 143.155C701.382 155.046 678.432 168.264 655.998 182.293C595.687 220.008 539.181 263.492 485.173 309.698C484.348 310.396 484.237 311.648 484.936 312.473C485.634 313.298 486.885 313.383 487.71 312.684C541.092 268.038 596.818 226.046 656.156 189.587C677.756 176.316 699.824 163.799 722.488 152.431C743.089 142.097 764.231 132.681 785.992 125.053C802.148 119.389 818.721 114.664 835.648 111.971C847.694 110.055 860.015 109.123 872.17 110.465C887.057 112.109 901.869 117.602 911.547 129.519C914.049 132.6 916.155 135.995 917.836 139.587C925.991 157.015 924.875 177.924 921.668 196.432C918.577 214.273 913.079 231.634 906.552 248.493C898.066 270.413 887.728 291.611 876.478 312.235C846.908 366.446 811.154 417.198 772.963 465.644C715.829 538.12 652.001 605.36 583.905 667.599C527.438 719.208 467.718 767.528 404.148 810.146C380.234 826.179 355.747 841.378 330.575 855.363C307.597 868.129 284.034 879.927 259.725 889.956C240.755 897.782 221.238 904.586 201.189 909.062C187.258 912.173 172.889 914.218 158.588 913.661C140.488 912.956 122.077 907.586 110.967 892.334C99.7817 876.979 98.8893 856.67 100.713 838.45C102.369 821.908 106.668 805.654 111.945 789.93C119.064 768.714 128.193 748.213 138.319 728.275C164.023 677.664 195.97 630.291 230.153 585.067C283.094 515.027 342.573 450.103 405.602 389.058C406.986 387.721 407.018 385.501 405.681 384.116C404.344 382.732 402.124 382.7 400.739 384.037C337.244 445.155 277.367 510.201 223.916 580.337C203.434 607.213 183.896 634.834 165.829 663.397C152.181 684.976 139.346 707.092 127.88 729.914C117.445 750.685 108.051 772.091 101.004 794.264C95.927 810.237 91.9268 826.759 90.7768 843.524C89.4565 862.769 92.0713 883.521 104.202 899.205C117.621 916.557 139.015 922.701 160.148 923.148C175.438 923.471 190.707 921.121 205.549 917.598C224.814 913.027 243.554 906.396 261.812 898.782C285.778 888.789 308.968 876.987 331.58 864.242C357.859 849.43 383.384 833.279 408.297 816.277C474.375 771.184 536.478 720.238 595.242 666.013C659.199 606.996 719.588 543.824 774.549 476.32C798.464 446.947 821.314 416.698 842.519 385.306C858.446 361.727 873.493 337.513 887.022 312.473C898.045 292.073 908.13 271.101 916.383 249.418C922.974 232.101 928.499 214.25 931.473 195.93C934.622 176.526 935.129 155.35 926.954 137.05C925.022 132.726 922.598 128.606 919.686 124.868C908.321 110.277 891.072 103.537 873.095 101.744C870.044 101.44 866.989 101.273 863.925 101.215Z" fill="white" stroke="white" stroke-width="50" stroke-linecap="butt" stroke-linejoin="round"/>
      <path d="M489.449 485.865C548.224 431.263 605.967 398.701 618.421 413.135C630.876 427.569 593.326 483.533 534.551 538.135C475.776 592.737 418.033 625.299 405.579 610.865C393.124 596.431 430.674 540.467 489.449 485.865Z" fill="white" stroke="white" stroke-width="40" stroke-linecap="butt" stroke-linejoin="round"/>
      <path d="M413.46 376.32L391.796 413.134L370.252 449.94L355.386 433.271L340.383 416.736L376.914 396.591L413.46 376.32Z" fill="white" stroke="white" stroke-width="80" stroke-linecap="butt" stroke-linejoin="miter" stroke-miterlimit="10"/>
    </g>

    <g transform="translate(325.5, 303.25)">
      <path d="M5.85-100.35L4.50-106.95L22.50-106.50L45.45-107.10Q61.95-107.10 72.45-100.05Q82.95-93 82.95-78.45Q82.95-57 61.20-49.50Q64.35-45.30 71.10-36Q85.65-15.30 90.83-10.50Q96-5.70 102.75-5.10L104.70 0.15L93.60-0.30L78.60 0Q75.75-3.90 63.52-22.50Q51.30-41.10 47.10-46.20Q46.50-46.80 45.45-46.80L31.05-46.80L31.05-12Q31.05-9 33.75-7.87Q36.45-6.75 44.10-6.15L45.45 0.45Q26.10 0 25.65 0L6.45 0.45L5.25-6.15Q13.65-7.05 15.52-7.87Q17.40-8.70 17.40-12L17.40-94.50Q17.40-97.50 15.22-98.62Q13.05-99.75 5.85-100.35M31.05-97.50L31.05-54Q34.50-53.55 40.95-53.55Q68.70-53.55 68.70-78.30Q68.70-89.10 61.65-94.58Q54.60-100.05 43.35-100.05Q33.60-100.05 32.32-99.22Q31.05-98.40 31.05-97.50M162-99.90L146.55-99.75Q136.05-99.30 136.05-97.35L136.05-59.85Q136.05-58.35 137.55-58.35L159.90-58.35Q163.50-58.35 164.78-61.72Q166.05-65.10 166.05-74.25L171-75L170.70-55.05L171-36.60L166.05-35.85Q166.05-44.70 165-47.25Q163.95-49.80 159.90-49.80L137.55-49.80Q136.05-49.80 136.05-48.45L136.05-13.35Q136.05-8.85 139.13-7.50Q142.20-6.15 152.10-6.15L153.60 0.30L132.90 0Q130.95 0 111.15 0.45L109.95-6.15Q118.35-7.05 120.22-7.87Q122.10-8.70 122.40-12L122.40-94.50Q122.40-97.65 120.30-98.70Q118.20-99.75 110.55-100.35L109.20-106.95L127.95-106.50L150.60-106.50L187.65-106.35Q188.70-104.10 188.70-96.30Q188.70-88.50 187.95-80.25L183.15-80.70Q181.35-91.35 176.55-95.62Q171.75-99.90 162-99.90M231.60-5.70Q241.95-5.70 247.57-10.95Q253.20-16.20 253.20-23.70Q253.20-31.20 247.72-36.52Q242.25-41.85 234.38-45.75Q226.50-49.65 218.63-53.85Q210.75-58.05 205.27-65.02Q199.80-72 199.80-81.30Q199.80-94.65 209.40-101.47Q219-108.30 232.20-108.30Q249.15-108.30 261.30-102.60Q262.35-100.35 262.35-90.83Q262.35-81.30 261.75-76.50L257.10-76.80Q256.50-87.30 249.82-94.27Q243.15-101.25 231.75-101.25Q223.65-101.25 218.47-97.12Q213.30-93 213.30-85.65Q213.30-76.95 223.95-70.50Q228.60-67.65 234.30-64.80Q240-61.95 245.70-58.72Q251.40-55.50 256.05-51.60Q266.70-42.90 266.70-29.47Q266.70-16.05 257.40-7.12Q248.10 1.80 232.80 1.80Q217.50 1.80 201-4.35Q200.25-6.60 198.90-15.52Q197.55-24.45 196.95-30.60L203.85-31.65Q209.85-5.70 231.60-5.70" fill="white"/>
    </g>
  </g>
</svg>
